<svg width="26" height="18" viewBox="0 0 26 18" fill="none" xmlns="http://www.w3.org/2000/svg">
<path d="M15.3636 6.61359V4.84367C16.0136 4.60074 16.6784 4.41855 17.358 4.29708C18.0375 4.17562 18.7515 4.11489 19.5 4.11489C20.0121 4.11489 20.5144 4.14959 21.0068 4.219C21.4992 4.28841 21.9818 4.37517 22.4545 4.47928V6.14508C21.9818 5.98891 21.5042 5.87178 21.0216 5.7937C20.539 5.71562 20.0318 5.67657 19.5 5.67657C18.7515 5.67657 18.0326 5.759 17.3432 5.92384C16.6538 6.08869 15.9939 6.3186 15.3636 6.61359ZM15.3636 12.3398V10.5699C16.0136 10.3269 16.6784 10.1447 17.358 10.0233C18.0375 9.90181 18.7515 9.84107 19.5 9.84107C20.0121 9.84107 20.5144 9.87578 21.0068 9.94519C21.4992 10.0146 21.9818 10.1014 22.4545 10.2055V11.8713C21.9818 11.7151 21.5042 11.598 21.0216 11.5199C20.539 11.4418 20.0318 11.4028 19.5 11.4028C18.7515 11.4028 18.0326 11.4808 17.3432 11.637C16.6538 11.7932 15.9939 12.0274 15.3636 12.3398ZM15.3636 9.47668V7.70677C16.0136 7.46384 16.6784 7.28164 17.358 7.16018C18.0375 7.03871 18.7515 6.97798 19.5 6.97798C20.0121 6.97798 20.5144 7.01268 21.0068 7.08209C21.4992 7.1515 21.9818 7.23826 22.4545 7.34237V9.00817C21.9818 8.85201 21.5042 8.73488 21.0216 8.65679C20.539 8.57871 20.0318 8.53967 19.5 8.53967C18.7515 8.53967 18.0326 8.62209 17.3432 8.78693C16.6538 8.95178 15.9939 9.18169 15.3636 9.47668ZM6.5 12.9644C7.42576 12.9644 8.32689 13.0555 9.20341 13.2377C10.0799 13.4199 10.9515 13.6932 11.8182 14.0576V3.80255C11.0106 3.3861 10.1538 3.07376 9.24773 2.86554C8.34167 2.65731 7.42576 2.5532 6.5 2.5532C5.79091 2.5532 5.08674 2.61393 4.3875 2.73539C3.68826 2.85686 3.01364 3.03906 2.36364 3.28199V13.5891C3.05303 13.3809 3.7375 13.2247 4.41705 13.1206C5.09659 13.0165 5.79091 12.9644 6.5 12.9644ZM14.1818 14.0576C15.0485 13.6932 15.9201 13.4199 16.7966 13.2377C17.6731 13.0555 18.5742 12.9644 19.5 12.9644C20.2091 12.9644 20.9034 13.0165 21.583 13.1206C22.2625 13.2247 22.947 13.3809 23.6364 13.5891V3.28199C22.9864 3.03906 22.3117 2.85686 21.6125 2.73539C20.9133 2.61393 20.2091 2.5532 19.5 2.5532C18.5742 2.5532 17.6583 2.65731 16.7523 2.86554C15.8462 3.07376 14.9894 3.3861 14.1818 3.80255V14.0576ZM13 17.129C12.0545 16.4696 11.0303 15.9577 9.92727 15.5933C8.82424 15.2289 7.68182 15.0467 6.5 15.0467C5.67273 15.0467 4.86023 15.1421 4.0625 15.333C3.26477 15.5239 2.50152 15.7928 1.77273 16.1399C1.35909 16.3308 0.960227 16.3221 0.576136 16.1139C0.192045 15.9056 0 15.602 0 15.2029V2.65731C0 2.46644 0.0541667 2.28424 0.1625 2.11072C0.270833 1.9372 0.433333 1.80706 0.65 1.7203C1.55606 1.30385 2.50152 0.99151 3.48636 0.783285C4.47121 0.57506 5.47576 0.470947 6.5 0.470947C7.64242 0.470947 8.76023 0.601088 9.85341 0.861369C10.9466 1.12165 11.9955 1.51207 13 2.03264C14.0045 1.51207 15.0534 1.12165 16.1466 0.861369C17.2398 0.601088 18.3576 0.470947 19.5 0.470947C20.5242 0.470947 21.5288 0.57506 22.5136 0.783285C23.4985 0.99151 24.4439 1.30385 25.35 1.7203C25.5667 1.80706 25.7292 1.9372 25.8375 2.11072C25.9458 2.28424 26 2.46644 26 2.65731V15.2029C26 15.602 25.808 15.9056 25.4239 16.1139C25.0398 16.3221 24.6409 16.3308 24.2273 16.1399C23.4985 15.7928 22.7352 15.5239 21.9375 15.333C21.1398 15.1421 20.3273 15.0467 19.5 15.0467C18.3182 15.0467 17.1758 15.2289 16.0727 15.5933C14.9697 15.9577 13.9455 16.4696 13 17.129Z" fill="url(#paint0_linear_23_53)"/>
<defs>
<linearGradient id="paint0_linear_23_53" x1="13" y1="0.470947" x2="13" y2="17.129" gradientUnits="userSpaceOnUse">
<stop stop-color="#517AC8"/>
<stop offset="1" stop-color="#22228F"/>
</linearGradient>
</defs>
</svg>
