<svg width="22" height="18" viewBox="0 0 22 18" fill="none" xmlns="http://www.w3.org/2000/svg">
<path d="M10.8507 18.0057L15.3801 7.48484H17.4706L22 18.0057H19.9095L18.8394 15.3316H14.0113L12.9412 18.0057H10.8507ZM2.98643 15.3755L1.59276 14.148L6.61991 9.72052C6.03922 9.20909 5.51244 8.6246 5.03959 7.96705C4.56674 7.3095 4.13122 6.56427 3.73303 5.73137H5.82353C6.15535 6.30125 6.48718 6.79807 6.819 7.22182C7.15083 7.64558 7.54902 8.06933 8.01357 8.49309C8.56109 8.01089 9.12934 7.33507 9.71833 6.46564C10.3073 5.59621 10.7511 4.76696 11.0498 3.9779H0V2.22442H6.96833V0.470947H8.95928V2.22442H15.9276V3.9779H13.0407C12.6923 5.02998 12.1697 6.11129 11.4729 7.22182C10.776 8.33236 10.0875 9.17987 9.40724 9.76436L11.7964 11.9124L11.0498 13.7097L8.01357 10.9699L2.98643 15.3755ZM14.6335 13.7973H18.2172L16.4253 9.32599L14.6335 13.7973Z" fill="url(#paint0_linear_23_55)"/>
<defs>
<linearGradient id="paint0_linear_23_55" x1="11" y1="0.470947" x2="11" y2="18.0057" gradientUnits="userSpaceOnUse">
<stop stop-color="#517AC8"/>
<stop offset="1" stop-color="#22228F"/>
</linearGradient>
</defs>
</svg>
