<svg width="152" height="37" viewBox="0 0 152 37" fill="none" xmlns="http://www.w3.org/2000/svg">
<path d="M5.1 13.04C5.74 11.8134 6.5 10.8534 7.38 10.16C8.26 9.45336 9.3 9.10003 10.5 9.10003C11.4467 9.10003 12.2067 9.3067 12.78 9.72003L12.46 13.42C12.3933 13.66 12.2933 13.8334 12.16 13.94C12.04 14.0334 11.8733 14.08 11.66 14.08C11.46 14.08 11.16 14.0467 10.76 13.98C10.3733 13.9134 9.99334 13.88 9.62 13.88C9.07334 13.88 8.58667 13.96 8.16 14.12C7.73334 14.28 7.34667 14.5134 7 14.82C6.66667 15.1134 6.36667 15.4734 6.1 15.9C5.84667 16.3267 5.60667 16.8134 5.38 17.36V30H0.440002V9.48003H3.34C3.84667 9.48003 4.2 9.57336 4.4 9.76003C4.6 9.93336 4.73334 10.2534 4.8 10.72L5.1 13.04Z" fill="#09090B"/>
<path d="M25.9284 21.24C24.5018 21.3067 23.3018 21.4334 22.3284 21.62C21.3551 21.7934 20.5751 22.02 19.9884 22.3C19.4018 22.58 18.9818 22.9067 18.7284 23.28C18.4751 23.6534 18.3484 24.06 18.3484 24.5C18.3484 25.3667 18.6018 25.9867 19.1084 26.36C19.6284 26.7334 20.3018 26.92 21.1284 26.92C22.1418 26.92 23.0151 26.74 23.7484 26.38C24.4951 26.0067 25.2218 25.4467 25.9284 24.7V21.24ZM14.6084 12.34C16.9684 10.18 19.8084 9.10003 23.1284 9.10003C24.3284 9.10003 25.4018 9.30003 26.3484 9.70003C27.2951 10.0867 28.0951 10.6334 28.7484 11.34C29.4018 12.0334 29.8951 12.8667 30.2284 13.84C30.5751 14.8134 30.7484 15.88 30.7484 17.04V30H28.5084C28.0418 30 27.6818 29.9334 27.4284 29.8C27.1751 29.6534 26.9751 29.3667 26.8284 28.94L26.3884 27.46C25.8684 27.9267 25.3618 28.34 24.8684 28.7C24.3751 29.0467 23.8618 29.34 23.3284 29.58C22.7951 29.82 22.2218 30 21.6084 30.12C21.0084 30.2534 20.3418 30.32 19.6084 30.32C18.7418 30.32 17.9418 30.2067 17.2084 29.98C16.4751 29.74 15.8418 29.3867 15.3084 28.92C14.7751 28.4534 14.3618 27.8734 14.0684 27.18C13.7751 26.4867 13.6284 25.68 13.6284 24.76C13.6284 24.24 13.7151 23.7267 13.8884 23.22C14.0618 22.7 14.3418 22.2067 14.7284 21.74C15.1284 21.2734 15.6418 20.8334 16.2684 20.42C16.8951 20.0067 17.6618 19.6467 18.5684 19.34C19.4884 19.0334 20.5551 18.7867 21.7684 18.6C22.9818 18.4 24.3684 18.28 25.9284 18.24V17.04C25.9284 15.6667 25.6351 14.6534 25.0484 14C24.4618 13.3334 23.6151 13 22.5084 13C21.7084 13 21.0418 13.0934 20.5084 13.28C19.9884 13.4667 19.5284 13.68 19.1284 13.92C18.7284 14.1467 18.3618 14.3534 18.0284 14.54C17.7084 14.7267 17.3484 14.82 16.9484 14.82C16.6018 14.82 16.3084 14.7334 16.0684 14.56C15.8284 14.3734 15.6351 14.16 15.4884 13.92L14.6084 12.34Z" fill="#09090B"/>
<path d="M40.3409 24.68C40.9009 25.36 41.5076 25.84 42.1609 26.12C42.8276 26.4 43.5476 26.54 44.3209 26.54C45.0676 26.54 45.7409 26.4 46.3409 26.12C46.9409 25.84 47.4476 25.4134 47.8609 24.84C48.2876 24.2667 48.6143 23.5467 48.8409 22.68C49.0676 21.8 49.1809 20.7667 49.1809 19.58C49.1809 18.38 49.0809 17.3667 48.8809 16.54C48.6943 15.7 48.4209 15.02 48.0609 14.5C47.7009 13.98 47.2609 13.6 46.7409 13.36C46.2343 13.12 45.6543 13 45.0009 13C43.9743 13 43.1009 13.22 42.3809 13.66C41.6609 14.0867 40.9809 14.6934 40.3409 15.48V24.68ZM40.0809 12.28C40.9209 11.3334 41.8743 10.5667 42.9409 9.98003C44.0076 9.39336 45.2609 9.10003 46.7009 9.10003C47.8209 9.10003 48.8409 9.33336 49.7609 9.80003C50.6943 10.2667 51.4943 10.9467 52.1609 11.84C52.8409 12.72 53.3609 13.8134 53.7209 15.12C54.0943 16.4134 54.2809 17.9 54.2809 19.58C54.2809 21.1134 54.0743 22.5334 53.6609 23.84C53.2476 25.1467 52.6543 26.28 51.8809 27.24C51.1209 28.2 50.1943 28.9534 49.1009 29.5C48.0209 30.0334 46.8076 30.3 45.4609 30.3C44.3143 30.3 43.3343 30.1267 42.5209 29.78C41.7076 29.42 40.9809 28.9267 40.3409 28.3V36.7H35.4009V9.48003H38.4209C39.0609 9.48003 39.4809 9.78003 39.6809 10.38L40.0809 12.28Z" fill="#09090B"/>
<path d="M63.0753 11.68C63.8753 10.9334 64.7553 10.3267 65.7153 9.86003C66.6753 9.39336 67.802 9.16003 69.0953 9.16003C70.2153 9.16003 71.2086 9.35336 72.0753 9.74003C72.942 10.1134 73.662 10.6467 74.2353 11.34C74.822 12.02 75.262 12.84 75.5553 13.8C75.862 14.7467 76.0153 15.7934 76.0153 16.94V30H71.0753V16.94C71.0753 15.6867 70.7887 14.72 70.2153 14.04C69.642 13.3467 68.7686 13 67.5953 13C66.742 13 65.942 13.1934 65.1953 13.58C64.4486 13.9667 63.742 14.4934 63.0753 15.16V30H58.1353V0.280029H63.0753V11.68Z" fill="#09090B"/>
<path d="M85.8334 9.48003V30H80.8734V9.48003H85.8334ZM86.5134 3.50003C86.5134 3.9267 86.4268 4.32669 86.2534 4.70003C86.0801 5.07336 85.8468 5.40003 85.5534 5.68003C85.2734 5.96003 84.9401 6.1867 84.5534 6.36003C84.1668 6.52003 83.7534 6.60003 83.3134 6.60003C82.8868 6.60003 82.4801 6.52003 82.0934 6.36003C81.7201 6.1867 81.3934 5.96003 81.1134 5.68003C80.8334 5.40003 80.6068 5.07336 80.4334 4.70003C80.2734 4.32669 80.1934 3.9267 80.1934 3.50003C80.1934 3.06003 80.2734 2.6467 80.4334 2.26003C80.6068 1.87336 80.8334 1.54003 81.1134 1.26003C81.3934 0.980029 81.7201 0.760029 82.0934 0.60003C82.4801 0.426696 82.8868 0.34003 83.3134 0.34003C83.7534 0.34003 84.1668 0.426696 84.5534 0.60003C84.9401 0.760029 85.2734 0.980029 85.5534 1.26003C85.8468 1.54003 86.0801 1.87336 86.2534 2.26003C86.4268 2.6467 86.5134 3.06003 86.5134 3.50003Z" fill="#09090B"/>
<path d="M97.7097 30.32C95.923 30.32 94.5497 29.82 93.5897 28.82C92.643 27.8067 92.1697 26.4134 92.1697 24.64V13.18H90.0697C89.803 13.18 89.5764 13.0934 89.3897 12.92C89.203 12.7467 89.1097 12.4867 89.1097 12.14V10.18L92.4097 9.64003L93.4497 4.04003C93.5164 3.77336 93.643 3.5667 93.8297 3.42003C94.0164 3.27336 94.2564 3.20003 94.5497 3.20003H97.1097V9.66003H102.59V13.18H97.1097V24.3C97.1097 24.94 97.263 25.44 97.5697 25.8C97.8897 26.16 98.323 26.34 98.8697 26.34C99.1764 26.34 99.4297 26.3067 99.6297 26.24C99.843 26.16 100.023 26.08 100.17 26C100.33 25.92 100.47 25.8467 100.59 25.78C100.71 25.7 100.83 25.66 100.95 25.66C101.096 25.66 101.216 25.7 101.31 25.78C101.403 25.8467 101.503 25.9534 101.61 26.1L103.09 28.5C102.37 29.1 101.543 29.5534 100.61 29.86C99.6764 30.1667 98.7097 30.32 97.7097 30.32Z" fill="#09090B"/>
<path d="M114.676 9.16003C116.196 9.16003 117.576 9.4067 118.816 9.90003C120.07 10.3934 121.136 11.0934 122.016 12C122.91 12.9067 123.596 14.0134 124.076 15.32C124.556 16.6267 124.796 18.0867 124.796 19.7C124.796 21.3267 124.556 22.7934 124.076 24.1C123.596 25.4067 122.91 26.52 122.016 27.44C121.136 28.36 120.07 29.0667 118.816 29.56C117.576 30.0534 116.196 30.3 114.676 30.3C113.143 30.3 111.75 30.0534 110.496 29.56C109.243 29.0667 108.17 28.36 107.276 27.44C106.396 26.52 105.71 25.4067 105.216 24.1C104.736 22.7934 104.496 21.3267 104.496 19.7C104.496 18.0867 104.736 16.6267 105.216 15.32C105.71 14.0134 106.396 12.9067 107.276 12C108.17 11.0934 109.243 10.3934 110.496 9.90003C111.75 9.4067 113.143 9.16003 114.676 9.16003ZM114.676 26.5C116.383 26.5 117.643 25.9267 118.456 24.78C119.283 23.6334 119.696 21.9534 119.696 19.74C119.696 17.5267 119.283 15.84 118.456 14.68C117.643 13.52 116.383 12.94 114.676 12.94C112.943 12.94 111.656 13.5267 110.816 14.7C109.99 15.86 109.576 17.54 109.576 19.74C109.576 21.94 109.99 23.62 110.816 24.78C111.656 25.9267 112.943 26.5 114.676 26.5Z" fill="#09090B"/>
<path d="M141.085 13.48C140.952 13.6934 140.812 13.8467 140.665 13.94C140.518 14.02 140.332 14.06 140.105 14.06C139.865 14.06 139.605 13.9934 139.325 13.86C139.058 13.7267 138.745 13.58 138.385 13.42C138.025 13.2467 137.612 13.0934 137.145 12.96C136.692 12.8267 136.152 12.76 135.525 12.76C134.552 12.76 133.785 12.9667 133.225 13.38C132.678 13.7934 132.405 14.3334 132.405 15C132.405 15.44 132.545 15.8134 132.825 16.12C133.118 16.4134 133.498 16.6734 133.965 16.9C134.445 17.1267 134.985 17.3334 135.585 17.52C136.185 17.6934 136.792 17.8867 137.405 18.1C138.032 18.3134 138.645 18.56 139.245 18.84C139.845 19.1067 140.378 19.4534 140.845 19.88C141.325 20.2934 141.705 20.7934 141.985 21.38C142.278 21.9667 142.425 22.6734 142.425 23.5C142.425 24.4867 142.245 25.4 141.885 26.24C141.538 27.0667 141.018 27.7867 140.325 28.4C139.632 29 138.772 29.4734 137.745 29.82C136.732 30.1534 135.558 30.32 134.225 30.32C133.518 30.32 132.825 30.2534 132.145 30.12C131.478 30 130.832 29.8267 130.205 29.6C129.592 29.3734 129.018 29.1067 128.485 28.8C127.965 28.4934 127.505 28.16 127.105 27.8L128.245 25.92C128.392 25.6934 128.565 25.52 128.765 25.4C128.965 25.28 129.218 25.22 129.525 25.22C129.832 25.22 130.118 25.3067 130.385 25.48C130.665 25.6534 130.985 25.84 131.345 26.04C131.705 26.24 132.125 26.4267 132.605 26.6C133.098 26.7734 133.718 26.86 134.465 26.86C135.052 26.86 135.552 26.7934 135.965 26.66C136.392 26.5134 136.738 26.3267 137.005 26.1C137.285 25.8734 137.485 25.6134 137.605 25.32C137.738 25.0134 137.805 24.7 137.805 24.38C137.805 23.9 137.658 23.5067 137.365 23.2C137.085 22.8934 136.705 22.6267 136.225 22.4C135.758 22.1734 135.218 21.9734 134.605 21.8C134.005 21.6134 133.385 21.4134 132.745 21.2C132.118 20.9867 131.498 20.74 130.885 20.46C130.285 20.1667 129.745 19.8 129.265 19.36C128.798 18.92 128.418 18.38 128.125 17.74C127.845 17.1 127.705 16.3267 127.705 15.42C127.705 14.58 127.872 13.78 128.205 13.02C128.538 12.26 129.025 11.6 129.665 11.04C130.318 10.4667 131.125 10.0134 132.085 9.68003C133.058 9.33336 134.178 9.16003 135.445 9.16003C136.858 9.16003 138.145 9.39336 139.305 9.86003C140.465 10.3267 141.432 10.94 142.205 11.7L141.085 13.48Z" fill="#09090B"/>
<path d="M145.423 27.28C145.423 26.8667 145.496 26.4734 145.643 26.1C145.803 25.7267 146.016 25.4067 146.283 25.14C146.55 24.8734 146.87 24.66 147.243 24.5C147.616 24.34 148.016 24.26 148.443 24.26C148.87 24.26 149.263 24.34 149.623 24.5C149.996 24.66 150.316 24.8734 150.583 25.14C150.863 25.4067 151.083 25.7267 151.243 26.1C151.403 26.4734 151.483 26.8667 151.483 27.28C151.483 27.7067 151.403 28.1067 151.243 28.48C151.083 28.84 150.863 29.1534 150.583 29.42C150.316 29.6867 149.996 29.8934 149.623 30.04C149.263 30.2 148.87 30.28 148.443 30.28C148.016 30.28 147.616 30.2 147.243 30.04C146.87 29.8934 146.55 29.6867 146.283 29.42C146.016 29.1534 145.803 28.84 145.643 28.48C145.496 28.1067 145.423 27.7067 145.423 27.28Z" fill="#09090B"/>
</svg>
